<?xml version="1.0" encoding="UTF-8" standalone="no"?>
<!-- Created with Inkscape (http://www.inkscape.org/) -->
<svg
   xmlns:dc="http://purl.org/dc/elements/1.1/"
   xmlns:cc="http://web.resource.org/cc/"
   xmlns:rdf="http://www.w3.org/1999/02/22-rdf-syntax-ns#"
   xmlns:svg="http://www.w3.org/2000/svg"
   xmlns="http://www.w3.org/2000/svg"
   xmlns:xlink="http://www.w3.org/1999/xlink"
   xmlns:sodipodi="http://sodipodi.sourceforge.net/DTD/sodipodi-0.dtd"
   xmlns:inkscape="http://www.inkscape.org/namespaces/inkscape"
   width="210mm"
   height="297mm"
   id="svg8135"
   sodipodi:version="0.32"
   inkscape:version="0.45.1"
   sodipodi:docbase="/media/pros/pyfl/art"
   sodipodi:docname="nebula.svg"
   inkscape:output_extension="org.inkscape.output.svg.inkscape">
  <defs
     id="defs8137">
    <linearGradient
       id="linearGradient8257">
      <stop
         style="stop-color:#0070a5;stop-opacity:0.73725492;"
         offset="0"
         id="stop8259" />
      <stop
         id="stop8265"
         offset="0.52631581"
         style="stop-color:#52ab85;stop-opacity:0.71428573;" />
      <stop
         style="stop-color:#ffe600;stop-opacity:0;"
         offset="1"
         id="stop8261" />
    </linearGradient>
    <linearGradient
       id="linearGradient8145">
      <stop
         style="stop-color:#00b3ff;stop-opacity:0.47959185;"
         offset="0"
         id="stop8147" />
      <stop
         id="stop8153"
         offset="0.42105263"
         style="stop-color:#3a16d9;stop-opacity:0.58163267;" />
      <stop
         style="stop-color:#2dff00;stop-opacity:0;"
         offset="1"
         id="stop8149" />
    </linearGradient>
    <radialGradient
       inkscape:collect="always"
       xlink:href="#linearGradient8145"
       id="radialGradient8151"
       cx="215.5"
       cy="521.36218"
       fx="215.5"
       fy="521.36218"
       r="62.5"
       gradientTransform="matrix(1,0,0,1.008,0,-4.1708975)"
       gradientUnits="userSpaceOnUse" />
    <radialGradient
       inkscape:collect="always"
       xlink:href="#linearGradient8145"
       id="radialGradient8157"
       gradientUnits="userSpaceOnUse"
       gradientTransform="matrix(1,0,0,1.008,0,-4.1708975)"
       cx="215.5"
       cy="521.36218"
       fx="215.5"
       fy="521.36218"
       r="62.5" />
    <radialGradient
       inkscape:collect="always"
       xlink:href="#linearGradient8145"
       id="radialGradient8161"
       gradientUnits="userSpaceOnUse"
       gradientTransform="matrix(1,0,0,1.008,0,-4.1708975)"
       cx="215.5"
       cy="521.36218"
       fx="215.5"
       fy="521.36218"
       r="62.5" />
    <radialGradient
       inkscape:collect="always"
       xlink:href="#linearGradient8145"
       id="radialGradient8165"
       gradientUnits="userSpaceOnUse"
       gradientTransform="matrix(1,0,0,1.008,0,-4.1708975)"
       cx="215.5"
       cy="521.36218"
       fx="215.5"
       fy="521.36218"
       r="62.5" />
    <radialGradient
       inkscape:collect="always"
       xlink:href="#linearGradient8145"
       id="radialGradient8169"
       gradientUnits="userSpaceOnUse"
       gradientTransform="matrix(1,0,0,1.008,0,-4.1708975)"
       cx="215.5"
       cy="521.36218"
       fx="215.5"
       fy="521.36218"
       r="62.5" />
    <radialGradient
       inkscape:collect="always"
       xlink:href="#linearGradient8145"
       id="radialGradient8173"
       gradientUnits="userSpaceOnUse"
       gradientTransform="matrix(1,0,0,1.008,0,-4.1708975)"
       cx="215.5"
       cy="521.36218"
       fx="215.5"
       fy="521.36218"
       r="62.5" />
    <radialGradient
       inkscape:collect="always"
       xlink:href="#linearGradient8145"
       id="radialGradient8177"
       gradientUnits="userSpaceOnUse"
       gradientTransform="matrix(1,0,0,1.008,0,-4.1708975)"
       cx="215.5"
       cy="521.36218"
       fx="215.5"
       fy="521.36218"
       r="62.5" />
    <radialGradient
       inkscape:collect="always"
       xlink:href="#linearGradient8145"
       id="radialGradient8181"
       gradientUnits="userSpaceOnUse"
       gradientTransform="matrix(1,0,0,1.008,0,-4.1708975)"
       cx="215.5"
       cy="521.36218"
       fx="215.5"
       fy="521.36218"
       r="62.5" />
    <radialGradient
       inkscape:collect="always"
       xlink:href="#linearGradient8145"
       id="radialGradient8185"
       gradientUnits="userSpaceOnUse"
       gradientTransform="matrix(1,0,0,1.008,0,-4.1708975)"
       cx="215.5"
       cy="521.36218"
       fx="215.5"
       fy="521.36218"
       r="62.5" />
    <radialGradient
       inkscape:collect="always"
       xlink:href="#linearGradient8145"
       id="radialGradient8189"
       gradientUnits="userSpaceOnUse"
       gradientTransform="matrix(1,0,0,1.008,0,-4.1708975)"
       cx="215.5"
       cy="521.36218"
       fx="215.5"
       fy="521.36218"
       r="62.5" />
    <radialGradient
       inkscape:collect="always"
       xlink:href="#linearGradient8145"
       id="radialGradient8193"
       gradientUnits="userSpaceOnUse"
       gradientTransform="matrix(1,0,0,1.008,0,-4.1708975)"
       cx="215.5"
       cy="521.36218"
       fx="215.5"
       fy="521.36218"
       r="62.5" />
    <radialGradient
       inkscape:collect="always"
       xlink:href="#linearGradient8145"
       id="radialGradient8197"
       gradientUnits="userSpaceOnUse"
       gradientTransform="matrix(1,0,0,1.008,0,-4.1708975)"
       cx="215.5"
       cy="521.36218"
       fx="215.5"
       fy="521.36218"
       r="62.5" />
    <radialGradient
       inkscape:collect="always"
       xlink:href="#linearGradient8145"
       id="radialGradient8201"
       gradientUnits="userSpaceOnUse"
       gradientTransform="matrix(1,0,0,1.008,0,-4.1708975)"
       cx="215.5"
       cy="521.36218"
       fx="215.5"
       fy="521.36218"
       r="62.5" />
    <radialGradient
       inkscape:collect="always"
       xlink:href="#linearGradient8145"
       id="radialGradient8205"
       gradientUnits="userSpaceOnUse"
       gradientTransform="matrix(1,0,0,1.008,0,-4.1708975)"
       cx="215.5"
       cy="521.36218"
       fx="215.5"
       fy="521.36218"
       r="62.5" />
    <radialGradient
       inkscape:collect="always"
       xlink:href="#linearGradient8145"
       id="radialGradient8209"
       gradientUnits="userSpaceOnUse"
       gradientTransform="matrix(1,0,0,1.008,0,-4.1708975)"
       cx="215.5"
       cy="521.36218"
       fx="215.5"
       fy="521.36218"
       r="62.5" />
    <radialGradient
       inkscape:collect="always"
       xlink:href="#linearGradient8145"
       id="radialGradient8213"
       gradientUnits="userSpaceOnUse"
       gradientTransform="matrix(1,0,0,1.008,0,-4.1708975)"
       cx="215.5"
       cy="521.36218"
       fx="215.5"
       fy="521.36218"
       r="62.5" />
    <radialGradient
       inkscape:collect="always"
       xlink:href="#linearGradient8145"
       id="radialGradient8217"
       gradientUnits="userSpaceOnUse"
       gradientTransform="matrix(1,0,0,1.008,0,-4.1708975)"
       cx="215.5"
       cy="521.36218"
       fx="215.5"
       fy="521.36218"
       r="62.5" />
    <radialGradient
       inkscape:collect="always"
       xlink:href="#linearGradient8145"
       id="radialGradient8221"
       gradientUnits="userSpaceOnUse"
       gradientTransform="matrix(1,0,0,1.008,0,-4.1708975)"
       cx="215.5"
       cy="521.36218"
       fx="215.5"
       fy="521.36218"
       r="62.5" />
    <radialGradient
       inkscape:collect="always"
       xlink:href="#linearGradient8145"
       id="radialGradient8225"
       gradientUnits="userSpaceOnUse"
       gradientTransform="matrix(1,0,0,1.008,0,-4.1708975)"
       cx="215.5"
       cy="521.36218"
       fx="215.5"
       fy="521.36218"
       r="62.5" />
    <radialGradient
       inkscape:collect="always"
       xlink:href="#linearGradient8145"
       id="radialGradient8229"
       gradientUnits="userSpaceOnUse"
       gradientTransform="matrix(1,0,0,1.008,0,-4.1708975)"
       cx="215.5"
       cy="521.36218"
       fx="215.5"
       fy="521.36218"
       r="62.5" />
    <radialGradient
       inkscape:collect="always"
       xlink:href="#linearGradient8145"
       id="radialGradient8233"
       gradientUnits="userSpaceOnUse"
       gradientTransform="matrix(1,0,0,1.008,0,-4.1708975)"
       cx="215.5"
       cy="521.36218"
       fx="215.5"
       fy="521.36218"
       r="62.5" />
    <radialGradient
       inkscape:collect="always"
       xlink:href="#linearGradient8145"
       id="radialGradient8237"
       gradientUnits="userSpaceOnUse"
       gradientTransform="matrix(1,0,0,1.008,0,-4.1708975)"
       cx="215.5"
       cy="521.36218"
       fx="215.5"
       fy="521.36218"
       r="62.5" />
    <radialGradient
       inkscape:collect="always"
       xlink:href="#linearGradient8145"
       id="radialGradient8241"
       gradientUnits="userSpaceOnUse"
       gradientTransform="matrix(1,0,0,1.008,0,-4.1708975)"
       cx="215.5"
       cy="521.36218"
       fx="215.5"
       fy="521.36218"
       r="62.5" />
    <radialGradient
       inkscape:collect="always"
       xlink:href="#linearGradient8145"
       id="radialGradient8245"
       gradientUnits="userSpaceOnUse"
       gradientTransform="matrix(1,0,0,1.008,0,-4.1708975)"
       cx="215.5"
       cy="521.36218"
       fx="215.5"
       fy="521.36218"
       r="62.5" />
    <radialGradient
       inkscape:collect="always"
       xlink:href="#linearGradient8145"
       id="radialGradient8249"
       gradientUnits="userSpaceOnUse"
       gradientTransform="matrix(1,0,0,1.008,0,-4.1708975)"
       cx="215.5"
       cy="521.36218"
       fx="215.5"
       fy="521.36218"
       r="62.5" />
    <radialGradient
       inkscape:collect="always"
       xlink:href="#linearGradient8145"
       id="radialGradient8253"
       gradientUnits="userSpaceOnUse"
       gradientTransform="matrix(1,0,0,1.008,0,-4.1708975)"
       cx="215.5"
       cy="521.36218"
       fx="215.5"
       fy="521.36218"
       r="62.5" />
    <radialGradient
       inkscape:collect="always"
       xlink:href="#linearGradient8257"
       id="radialGradient8263"
       cx="267.5"
       cy="623.86218"
       fx="267.5"
       fy="623.86218"
       r="67.5"
       gradientTransform="matrix(1,0,0,0.6592593,0,212.57526)"
       gradientUnits="userSpaceOnUse" />
    <radialGradient
       inkscape:collect="always"
       xlink:href="#linearGradient8145"
       id="radialGradient8270"
       gradientUnits="userSpaceOnUse"
       gradientTransform="matrix(1,0,0,1.008,0,-4.1708975)"
       cx="215.5"
       cy="521.36218"
       fx="215.5"
       fy="521.36218"
       r="62.5" />
  </defs>
  <sodipodi:namedview
     id="base"
     pagecolor="#000000"
     bordercolor="#666666"
     borderopacity="1.0"
     inkscape:pageopacity="0"
     inkscape:pageshadow="2"
     inkscape:zoom="1"
     inkscape:cx="350"
     inkscape:cy="360"
     inkscape:document-units="px"
     inkscape:current-layer="layer1"
     inkscape:window-width="877"
     inkscape:window-height="628"
     inkscape:window-x="52"
     inkscape:window-y="62" />
  <metadata
     id="metadata8140">
    <rdf:RDF>
      <cc:Work
         rdf:about="">
        <dc:format>image/svg+xml</dc:format>
        <dc:type
           rdf:resource="http://purl.org/dc/dcmitype/StillImage" />
      </cc:Work>
    </rdf:RDF>
  </metadata>
  <g
     inkscape:label="Capa 1"
     inkscape:groupmode="layer"
     id="layer1">
    <path
       sodipodi:type="arc"
       style="opacity:1;fill:url(#radialGradient8263);fill-opacity:1;stroke:none;stroke-width:2.70000005;stroke-linejoin:bevel;stroke-miterlimit:4;stroke-dasharray:none;stroke-opacity:1"
       id="path8255"
       sodipodi:cx="267.5"
       sodipodi:cy="623.86218"
       sodipodi:rx="67.5"
       sodipodi:ry="44.5"
       d="M 335 623.86218 A 67.5 44.5 0 1 1  200,623.86218 A 67.5 44.5 0 1 1  335 623.86218 z"
       transform="matrix(1.5111111,0,0,1.2921348,-125.22222,-301.25187)" />
    <path
       sodipodi:type="arc"
       style="opacity:1;fill:url(#radialGradient8151);fill-opacity:1;stroke:none;stroke-width:2.70000005;stroke-linejoin:bevel;stroke-miterlimit:4;stroke-dasharray:none;stroke-opacity:1"
       id="path8143"
       sodipodi:cx="215.5"
       sodipodi:cy="521.36218"
       sodipodi:rx="62.5"
       sodipodi:ry="63"
       d="M 278 521.36218 A 62.5 63 0 1 1  153,521.36218 A 62.5 63 0 1 1  278 521.36218 z"
       transform="matrix(0.2841905,0,0,0.2841905,197.25695,382.19602)" />
    <path
       transform="matrix(0.2286349,0,0,0.2286349,223.75695,403.66059)"
       d="M 278 521.36218 A 62.5 63 0 1 1  153,521.36218 A 62.5 63 0 1 1  278 521.36218 z"
       sodipodi:ry="63"
       sodipodi:rx="62.5"
       sodipodi:cy="521.36218"
       sodipodi:cx="215.5"
       id="path8155"
       style="opacity:1;fill:url(#radialGradient8157);fill-opacity:1;stroke:none;stroke-width:2.70000005;stroke-linejoin:bevel;stroke-miterlimit:4;stroke-dasharray:none;stroke-opacity:1"
       sodipodi:type="arc" />
    <path
       sodipodi:type="arc"
       style="opacity:1;fill:url(#radialGradient8161);fill-opacity:1;stroke:none;stroke-width:2.70000005;stroke-linejoin:bevel;stroke-miterlimit:4;stroke-dasharray:none;stroke-opacity:1"
       id="path8159"
       sodipodi:cx="215.5"
       sodipodi:cy="521.36218"
       sodipodi:rx="62.5"
       sodipodi:ry="63"
       d="M 278 521.36218 A 62.5 63 0 1 1  153,521.36218 A 62.5 63 0 1 1  278 521.36218 z"
       transform="matrix(0.2766349,0,0,0.2603809,194.41295,381.10941)" />
    <path
       transform="matrix(0.3778181,0,0,0.355619,205.93192,326.45587)"
       d="M 278 521.36218 A 62.5 63 0 1 1  153,521.36218 A 62.5 63 0 1 1  278 521.36218 z"
       sodipodi:ry="63"
       sodipodi:rx="62.5"
       sodipodi:cy="521.36218"
       sodipodi:cx="215.5"
       id="path8163"
       style="opacity:1;fill:url(#radialGradient8165);fill-opacity:1;stroke:none;stroke-width:2.70000005;stroke-linejoin:bevel;stroke-miterlimit:4;stroke-dasharray:none;stroke-opacity:1"
       sodipodi:type="arc" />
    <path
       sodipodi:type="arc"
       style="opacity:1;fill:url(#radialGradient8169);fill-opacity:1;stroke:none;stroke-width:2.70000005;stroke-linejoin:bevel;stroke-miterlimit:4;stroke-dasharray:none;stroke-opacity:1"
       id="path8167"
       sodipodi:cx="215.5"
       sodipodi:cy="521.36218"
       sodipodi:rx="62.5"
       sodipodi:ry="63"
       d="M 278 521.36218 A 62.5 63 0 1 1  153,521.36218 A 62.5 63 0 1 1  278 521.36218 z"
       transform="matrix(0.2738181,0,0,0.2603809,197.84392,359.10941)" />
    <path
       sodipodi:type="arc"
       style="opacity:1;fill:url(#radialGradient8173);fill-opacity:1;stroke:none;stroke-width:2.70000005;stroke-linejoin:bevel;stroke-miterlimit:4;stroke-dasharray:none;stroke-opacity:1"
       id="path8171"
       sodipodi:cx="215.5"
       sodipodi:cy="521.36218"
       sodipodi:rx="62.5"
       sodipodi:ry="63"
       d="M 278 521.36218 A 62.5 63 0 1 1  153,521.36218 A 62.5 63 0 1 1  278 521.36218 z"
       transform="matrix(0.3778181,0,0,0.355619,153.93192,319.45587)" />
    <path
       sodipodi:type="arc"
       style="opacity:1;fill:url(#radialGradient8177);fill-opacity:1;stroke:none;stroke-width:2.70000005;stroke-linejoin:bevel;stroke-miterlimit:4;stroke-dasharray:none;stroke-opacity:1"
       id="path8175"
       sodipodi:cx="215.5"
       sodipodi:cy="521.36218"
       sodipodi:rx="62.5"
       sodipodi:ry="63"
       d="M 278 521.36218 A 62.5 63 0 1 1  153,521.36218 A 62.5 63 0 1 1  278 521.36218 z"
       transform="matrix(0.3778181,0,0,0.355619,200.5802,297.95588)" />
    <path
       sodipodi:type="arc"
       style="opacity:1;fill:url(#radialGradient8181);fill-opacity:1;stroke:none;stroke-width:2.70000005;stroke-linejoin:bevel;stroke-miterlimit:4;stroke-dasharray:none;stroke-opacity:1"
       id="path8179"
       sodipodi:cx="215.5"
       sodipodi:cy="521.36218"
       sodipodi:rx="62.5"
       sodipodi:ry="63"
       d="M 278 521.36218 A 62.5 63 0 1 1  153,521.36218 A 62.5 63 0 1 1  278 521.36218 z"
       transform="matrix(0.3778181,0,0,0.355619,146.5802,289.95588)" />
    <path
       sodipodi:type="arc"
       style="opacity:1;fill:url(#radialGradient8185);fill-opacity:1;stroke:none;stroke-width:2.70000005;stroke-linejoin:bevel;stroke-miterlimit:4;stroke-dasharray:none;stroke-opacity:1"
       id="path8183"
       sodipodi:cx="215.5"
       sodipodi:cy="521.36218"
       sodipodi:rx="62.5"
       sodipodi:ry="63"
       d="M 278 521.36218 A 62.5 63 0 1 1  153,521.36218 A 62.5 63 0 1 1  278 521.36218 z"
       transform="matrix(0.3778181,0,0,0.355619,154.5802,345.95588)" />
    <path
       sodipodi:type="arc"
       style="opacity:1;fill:url(#radialGradient8189);fill-opacity:1;stroke:none;stroke-width:2.70000005;stroke-linejoin:bevel;stroke-miterlimit:4;stroke-dasharray:none;stroke-opacity:1"
       id="path8187"
       sodipodi:cx="215.5"
       sodipodi:cy="521.36218"
       sodipodi:rx="62.5"
       sodipodi:ry="63"
       d="M 278 521.36218 A 62.5 63 0 1 1  153,521.36218 A 62.5 63 0 1 1  278 521.36218 z"
       transform="matrix(0.3778181,0,0,0.355619,187.5802,286.95588)" />
    <path
       sodipodi:type="arc"
       style="opacity:1;fill:url(#radialGradient8193);fill-opacity:1;stroke:none;stroke-width:2.70000005;stroke-linejoin:bevel;stroke-miterlimit:4;stroke-dasharray:none;stroke-opacity:1"
       id="path8191"
       sodipodi:cx="215.5"
       sodipodi:cy="521.36218"
       sodipodi:rx="62.5"
       sodipodi:ry="63"
       d="M 278 521.36218 A 62.5 63 0 1 1  153,521.36218 A 62.5 63 0 1 1  278 521.36218 z"
       transform="matrix(0.3778181,0,0,0.355619,247.5802,288.95588)" />
    <path
       sodipodi:type="arc"
       style="opacity:1;fill:url(#radialGradient8197);fill-opacity:1;stroke:none;stroke-width:2.70000005;stroke-linejoin:bevel;stroke-miterlimit:4;stroke-dasharray:none;stroke-opacity:1"
       id="path8195"
       sodipodi:cx="215.5"
       sodipodi:cy="521.36218"
       sodipodi:rx="62.5"
       sodipodi:ry="63"
       d="M 278 521.36218 A 62.5 63 0 1 1  153,521.36218 A 62.5 63 0 1 1  278 521.36218 z"
       transform="matrix(0.3778181,0,0,0.355619,221.5802,335.95588)" />
    <path
       sodipodi:type="arc"
       style="opacity:1;fill:url(#radialGradient8201);fill-opacity:1;stroke:none;stroke-width:2.70000005;stroke-linejoin:bevel;stroke-miterlimit:4;stroke-dasharray:none;stroke-opacity:1"
       id="path8199"
       sodipodi:cx="215.5"
       sodipodi:cy="521.36218"
       sodipodi:rx="62.5"
       sodipodi:ry="63"
       d="M 278 521.36218 A 62.5 63 0 1 1  153,521.36218 A 62.5 63 0 1 1  278 521.36218 z"
       transform="matrix(0.2738181,0,0,0.2762539,139.4922,356.33383)" />
    <path
       sodipodi:type="arc"
       style="opacity:1;fill:url(#radialGradient8205);fill-opacity:1;stroke:none;stroke-width:2.70000005;stroke-linejoin:bevel;stroke-miterlimit:4;stroke-dasharray:none;stroke-opacity:1"
       id="path8203"
       sodipodi:cx="215.5"
       sodipodi:cy="521.36218"
       sodipodi:rx="62.5"
       sodipodi:ry="63"
       d="M 278 521.36218 A 62.5 63 0 1 1  153,521.36218 A 62.5 63 0 1 1  278 521.36218 z"
       transform="matrix(0.2738181,0,0,0.2762539,220.9922,353.33385)" />
    <path
       sodipodi:type="arc"
       style="opacity:1;fill:url(#radialGradient8209);fill-opacity:1;stroke:none;stroke-width:2.70000005;stroke-linejoin:bevel;stroke-miterlimit:4;stroke-dasharray:none;stroke-opacity:1"
       id="path8207"
       sodipodi:cx="215.5"
       sodipodi:cy="521.36218"
       sodipodi:rx="62.5"
       sodipodi:ry="63"
       d="M 278 521.36218 A 62.5 63 0 1 1  153,521.36218 A 62.5 63 0 1 1  278 521.36218 z"
       transform="matrix(0.2738181,0,0,0.2762539,208.9922,402.33385)" />
    <path
       sodipodi:type="arc"
       style="opacity:1;fill:url(#radialGradient8213);fill-opacity:1;stroke:none;stroke-width:2.70000005;stroke-linejoin:bevel;stroke-miterlimit:4;stroke-dasharray:none;stroke-opacity:1"
       id="path8211"
       sodipodi:cx="215.5"
       sodipodi:cy="521.36218"
       sodipodi:rx="62.5"
       sodipodi:ry="63"
       d="M 278 521.36218 A 62.5 63 0 1 1  153,521.36218 A 62.5 63 0 1 1  278 521.36218 z"
       transform="matrix(0.2738181,0,0,0.2762539,234.9922,334.33385)" />
    <path
       sodipodi:type="arc"
       style="opacity:1;fill:url(#radialGradient8217);fill-opacity:1;stroke:none;stroke-width:2.70000005;stroke-linejoin:bevel;stroke-miterlimit:4;stroke-dasharray:none;stroke-opacity:1"
       id="path8215"
       sodipodi:cx="215.5"
       sodipodi:cy="521.36218"
       sodipodi:rx="62.5"
       sodipodi:ry="63"
       d="M 278 521.36218 A 62.5 63 0 1 1  153,521.36218 A 62.5 63 0 1 1  278 521.36218 z"
       transform="matrix(0.2738181,0,0,0.2762539,278.9922,382.33385)" />
    <path
       sodipodi:type="arc"
       style="opacity:1;fill:url(#radialGradient8221);fill-opacity:1;stroke:none;stroke-width:2.70000005;stroke-linejoin:bevel;stroke-miterlimit:4;stroke-dasharray:none;stroke-opacity:1"
       id="path8219"
       sodipodi:cx="215.5"
       sodipodi:cy="521.36218"
       sodipodi:rx="62.5"
       sodipodi:ry="63"
       d="M 278 521.36218 A 62.5 63 0 1 1  153,521.36218 A 62.5 63 0 1 1  278 521.36218 z"
       transform="matrix(0.2738181,0,0,0.2762539,234.9922,395.33385)" />
    <path
       sodipodi:type="arc"
       style="opacity:1;fill:url(#radialGradient8225);fill-opacity:1;stroke:none;stroke-width:2.70000005;stroke-linejoin:bevel;stroke-miterlimit:4;stroke-dasharray:none;stroke-opacity:1"
       id="path8223"
       sodipodi:cx="215.5"
       sodipodi:cy="521.36218"
       sodipodi:rx="62.5"
       sodipodi:ry="63"
       d="M 278 521.36218 A 62.5 63 0 1 1  153,521.36218 A 62.5 63 0 1 1  278 521.36218 z"
       transform="matrix(0.1938181,0,0,0.1968888,279.2322,406.7118)" />
    <path
       sodipodi:type="arc"
       style="opacity:1;fill:url(#radialGradient8229);fill-opacity:1;stroke:none;stroke-width:2.70000005;stroke-linejoin:bevel;stroke-miterlimit:4;stroke-dasharray:none;stroke-opacity:1"
       id="path8227"
       sodipodi:cx="215.5"
       sodipodi:cy="521.36218"
       sodipodi:rx="62.5"
       sodipodi:ry="63"
       d="M 278 521.36218 A 62.5 63 0 1 1  153,521.36218 A 62.5 63 0 1 1  278 521.36218 z"
       transform="matrix(0.1938181,0,0,0.1968888,313.2322,394.71181)" />
    <path
       sodipodi:type="arc"
       style="opacity:1;fill:url(#radialGradient8233);fill-opacity:1;stroke:none;stroke-width:2.70000005;stroke-linejoin:bevel;stroke-miterlimit:4;stroke-dasharray:none;stroke-opacity:1"
       id="path8231"
       sodipodi:cx="215.5"
       sodipodi:cy="521.36218"
       sodipodi:rx="62.5"
       sodipodi:ry="63"
       d="M 278 521.36218 A 62.5 63 0 1 1  153,521.36218 A 62.5 63 0 1 1  278 521.36218 z"
       transform="matrix(0.1938181,0,0,0.1968888,294.2322,402.71181)" />
    <path
       sodipodi:type="arc"
       style="opacity:1;fill:url(#radialGradient8237);fill-opacity:1;stroke:none;stroke-width:2.70000005;stroke-linejoin:bevel;stroke-miterlimit:4;stroke-dasharray:none;stroke-opacity:1"
       id="path8235"
       sodipodi:cx="215.5"
       sodipodi:cy="521.36218"
       sodipodi:rx="62.5"
       sodipodi:ry="63"
       d="M 278 521.36218 A 62.5 63 0 1 1  153,521.36218 A 62.5 63 0 1 1  278 521.36218 z"
       transform="matrix(-0.3101819,0,0,0.1968888,333.3442,382.71181)" />
    <path
       sodipodi:type="arc"
       style="opacity:1;fill:url(#radialGradient8241);fill-opacity:1;stroke:none;stroke-width:2.70000005;stroke-linejoin:bevel;stroke-miterlimit:4;stroke-dasharray:none;stroke-opacity:1"
       id="path8239"
       sodipodi:cx="215.5"
       sodipodi:cy="521.36218"
       sodipodi:rx="62.5"
       sodipodi:ry="63"
       d="M 278 521.36218 A 62.5 63 0 1 1  153,521.36218 A 62.5 63 0 1 1  278 521.36218 z"
       transform="matrix(0.1938181,0,0,0.1968888,285.2322,395.71181)" />
    <path
       sodipodi:type="arc"
       style="opacity:1;fill:url(#radialGradient8245);fill-opacity:1;stroke:none;stroke-width:2.70000005;stroke-linejoin:bevel;stroke-miterlimit:4;stroke-dasharray:none;stroke-opacity:1"
       id="path8243"
       sodipodi:cx="215.5"
       sodipodi:cy="521.36218"
       sodipodi:rx="62.5"
       sodipodi:ry="63"
       d="M 278 521.36218 A 62.5 63 0 1 1  153,521.36218 A 62.5 63 0 1 1  278 521.36218 z"
       transform="matrix(0.1938181,0,0,0.1968888,277.2322,439.71181)" />
    <path
       sodipodi:type="arc"
       style="opacity:1;fill:url(#radialGradient8249);fill-opacity:1;stroke:none;stroke-width:2.70000005;stroke-linejoin:bevel;stroke-miterlimit:4;stroke-dasharray:none;stroke-opacity:1"
       id="path8247"
       sodipodi:cx="215.5"
       sodipodi:cy="521.36218"
       sodipodi:rx="62.5"
       sodipodi:ry="63"
       d="M 278 521.36218 A 62.5 63 0 1 1  153,521.36218 A 62.5 63 0 1 1  278 521.36218 z"
       transform="matrix(0.1938181,0,0,0.1968888,165.2322,419.71181)" />
    <path
       sodipodi:type="arc"
       style="opacity:1;fill:url(#radialGradient8253);fill-opacity:1;stroke:none;stroke-width:2.70000005;stroke-linejoin:bevel;stroke-miterlimit:4;stroke-dasharray:none;stroke-opacity:1"
       id="path8251"
       sodipodi:cx="215.5"
       sodipodi:cy="521.36218"
       sodipodi:rx="62.5"
       sodipodi:ry="63"
       d="M 278 521.36218 A 62.5 63 0 1 1  153,521.36218 A 62.5 63 0 1 1  278 521.36218 z"
       transform="matrix(0.1938181,0,0,0.1968888,175.2322,395.71181)" />
    <path
       transform="matrix(1.7868787,0,0,1.7524444,-192.57235,-203.29606)"
       d="M 278 521.36218 A 62.5 63 0 1 1  153,521.36218 A 62.5 63 0 1 1  278 521.36218 z"
       sodipodi:ry="63"
       sodipodi:rx="62.5"
       sodipodi:cy="521.36218"
       sodipodi:cx="215.5"
       id="path8268"
       style="opacity:1;fill:url(#radialGradient8270);fill-opacity:1;stroke:none;stroke-width:2.70000005;stroke-linejoin:bevel;stroke-miterlimit:4;stroke-dasharray:none;stroke-opacity:1"
       sodipodi:type="arc"
       inkscape:export-xdpi="92"
       inkscape:export-ydpi="92" />
  </g>
</svg>
