<?xml version="1.0" encoding="UTF-8" standalone="no"?>
<!-- Created with Inkscape (http://www.inkscape.org/) -->
<svg
   xmlns:dc="http://purl.org/dc/elements/1.1/"
   xmlns:cc="http://creativecommons.org/ns#"
   xmlns:rdf="http://www.w3.org/1999/02/22-rdf-syntax-ns#"
   xmlns:svg="http://www.w3.org/2000/svg"
   xmlns="http://www.w3.org/2000/svg"
   xmlns:xlink="http://www.w3.org/1999/xlink"
   xmlns:sodipodi="http://sodipodi.sourceforge.net/DTD/sodipodi-0.dtd"
   xmlns:inkscape="http://www.inkscape.org/namespaces/inkscape"
   width="210mm"
   height="297mm"
   id="svg2791"
   sodipodi:version="0.32"
   inkscape:version="0.46"
   sodipodi:docbase="/media/pros/pyfl/art"
   sodipodi:docname="astres.svg"
   inkscape:output_extension="org.inkscape.output.svg.inkscape">
  <sodipodi:namedview
     id="base"
     pagecolor="#ffffff"
     bordercolor="#666666"
     borderopacity="1.0"
     inkscape:pageopacity="0.0"
     inkscape:pageshadow="2"
     inkscape:zoom="4"
     inkscape:cx="144.10557"
     inkscape:cy="652.10545"
     inkscape:document-units="px"
     inkscape:current-layer="layer1"
     inkscape:window-width="1245"
     inkscape:window-height="746"
     inkscape:window-x="25"
     inkscape:window-y="0"
     showgrid="false" />
  <defs
     id="defs2793">
    <inkscape:perspective
       sodipodi:type="inkscape:persp3d"
       inkscape:vp_x="0 : 526.18109 : 1"
       inkscape:vp_y="0 : 1000 : 0"
       inkscape:vp_z="744.09448 : 526.18109 : 1"
       inkscape:persp3d-origin="372.04724 : 350.78739 : 1"
       id="perspective40" />
    <linearGradient
       id="linearGradient3138">
      <stop
         id="stop3140"
         offset="0"
         style="stop-color:#009f4d;stop-opacity:1;" />
      <stop
         style="stop-color:#009e08;stop-opacity:1;"
         offset="0.87"
         id="stop3142" />
      <stop
         id="stop3144"
         offset="1"
         style="stop-color:#0b5400;stop-opacity:1;" />
    </linearGradient>
    <linearGradient
       id="linearGradient3776">
      <stop
         style="stop-color:#ff7b00;stop-opacity:1;"
         offset="0"
         id="stop3778" />
      <stop
         id="stop3786"
         offset="0.87719297"
         style="stop-color:#ffc30f;stop-opacity:1;" />
      <stop
         style="stop-color:#fff324;stop-opacity:1;"
         offset="0.8817414"
         id="stop4129" />
      <stop
         style="stop-color:#fffa39;stop-opacity:0;"
         offset="1"
         id="stop3780" />
    </linearGradient>
    <radialGradient
       inkscape:collect="always"
       xlink:href="#linearGradient3776"
       id="radialGradient3784"
       cx="314.28571"
       cy="426.64789"
       fx="314.28571"
       fy="426.64789"
       r="500"
       gradientUnits="userSpaceOnUse" />
    <radialGradient
       inkscape:collect="always"
       xlink:href="#linearGradient3138"
       id="radialGradient2165"
       gradientUnits="userSpaceOnUse"
       cx="314.28571"
       cy="426.64789"
       fx="314.28571"
       fy="426.64789"
       r="500" />
    <filter
       inkscape:collect="always"
       x="-0.10572687"
       width="1.2114537"
       y="-0.10572687"
       height="1.2114537"
       id="filter5261">
      <feGaussianBlur
         inkscape:collect="always"
         stdDeviation="1.0279002"
         id="feGaussianBlur5263" />
    </filter>
    <filter
       inkscape:collect="always"
       x="-0.30660793"
       width="1.6132159"
       y="-0.30660793"
       height="1.6132159"
       id="filter5537">
      <feGaussianBlur
         inkscape:collect="always"
         stdDeviation="2.9809105"
         id="feGaussianBlur5539" />
    </filter>
    <filter
       inkscape:collect="always"
       x="-0.11807729"
       width="1.2361546"
       y="-0.14783411"
       height="1.2956682"
       id="filter5733">
      <feGaussianBlur
         inkscape:collect="always"
         stdDeviation="3.9483555"
         id="feGaussianBlur5735" />
    </filter>
    <filter
       inkscape:collect="always"
       x="-0.14783411"
       width="1.2956682"
       y="-0.11807729"
       height="1.2361546"
       id="filter5737">
      <feGaussianBlur
         inkscape:collect="always"
         stdDeviation="3.9483555"
         id="feGaussianBlur5739" />
    </filter>
    <filter
       inkscape:collect="always"
       x="-0.11807729"
       width="1.2361546"
       y="-0.14783411"
       height="1.2956682"
       id="filter5741">
      <feGaussianBlur
         inkscape:collect="always"
         stdDeviation="3.9483555"
         id="feGaussianBlur5743" />
    </filter>
    <filter
       inkscape:collect="always"
       x="-0.14783411"
       width="1.2956682"
       y="-0.11807729"
       height="1.2361546"
       id="filter5745">
      <feGaussianBlur
         inkscape:collect="always"
         stdDeviation="3.9483555"
         id="feGaussianBlur5747" />
    </filter>
    <filter
       inkscape:collect="always"
       id="filter3343">
      <feGaussianBlur
         inkscape:collect="always"
         stdDeviation="2.7300275"
         id="feGaussianBlur3345" />
    </filter>
  </defs>
  <metadata
     id="metadata2796">
    <rdf:RDF>
      <cc:Work
         rdf:about="">
        <dc:format>image/svg+xml</dc:format>
        <dc:type
           rdf:resource="http://purl.org/dc/dcmitype/StillImage" />
      </cc:Work>
    </rdf:RDF>
  </metadata>
  <g
     inkscape:label="Capa 1"
     inkscape:groupmode="layer"
     id="layer1">
    <path
       sodipodi:type="arc"
       style="opacity:1;fill:url(#radialGradient3784);fill-opacity:1;stroke:none;stroke-width:1;stroke-linejoin:bevel;stroke-miterlimit:4;stroke-dasharray:none;stroke-opacity:1"
       id="path2805"
       sodipodi:cx="314.28571"
       sodipodi:cy="426.64789"
       sodipodi:rx="500"
       sodipodi:ry="500"
       d="M 814.28571 426.64789 A 500 500 0 1 1  -185.71429,426.64789 A 500 500 0 1 1  814.28571 426.64789 z"
       inkscape:export-filename="/media/pros/pyfl/art/sol.png"
       inkscape:export-xdpi="2249.9998"
       inkscape:export-ydpi="2249.9998"
       transform="matrix(0.14,0,0,0.14,136.2857,337.91719)" />
    <path
       transform="matrix(0.14,0,0,0.14,388.2857,327.91719)"
       inkscape:export-ydpi="385.71429"
       inkscape:export-xdpi="385.71429"
       inkscape:export-filename="/media/pros/pyfl/art/gaia.png"
       d="M 814.28571 426.64789 A 500 500 0 1 1  -185.71429,426.64789 A 500 500 0 1 1  814.28571 426.64789 z"
       sodipodi:ry="500"
       sodipodi:rx="500"
       sodipodi:cy="426.64789"
       sodipodi:cx="314.28571"
       id="path2163"
       style="opacity:1;fill:url(#radialGradient2165);fill-opacity:1;stroke:none;stroke-width:1;stroke-linejoin:bevel;stroke-miterlimit:4;stroke-dasharray:none;stroke-opacity:1"
       sodipodi:type="arc" />
    <path
       sodipodi:type="arc"
       style="opacity:1;fill:#241c1c;fill-opacity:1;stroke:#000000;stroke-width:0;stroke-linejoin:miter;stroke-miterlimit:4;stroke-dasharray:none;stroke-opacity:1;filter:url(#filter5261)"
       id="path4133"
       sodipodi:cx="263"
       sodipodi:cy="553.02887"
       sodipodi:rx="11.666667"
       sodipodi:ry="11.666667"
       d="M 274.66667 553.02887 A 11.666667 11.666667 0 1 1  251.33333,553.02887 A 11.666667 11.666667 0 1 1  274.66667 553.02887 z" />
    <path
       id="path4137"
       style="fill:#000000;fill-rule:evenodd;stroke:#000000;stroke-width:1px;stroke-linecap:butt;stroke-linejoin:miter;stroke-opacity:1;filter:url(#filter5745)"
       d="M 262.66666,553.36218 C 262.66431,553.35812 262.67421,553.35584 262.67885,553.35514 C 262.77101,553.34127 262.78694,553.50382 262.77929,553.55727 C 262.71033,554.03902 262.01886,554.05388 261.67904,553.93238 C 260.2083,553.40652 260.27421,551.37396 260.86454,550.24083 C 262.65788,546.79856 267.48489,547.14196 270.28714,548.96249 C 277.15803,553.42628 276.16803,563.35463 271.78986,569.16403 C 262.50206,581.48801 244.10097,579.25313 233.39179,570.26404 C 212.93027,553.08901 217.29404,521.56894 233.83284,503.42055M 262.66666,553.36218 C 262.65016,553.33361 262.74315,553.31481 262.74925,553.3145 C 263.09914,553.29629 263.13144,553.83969 263.06989,554.0606 C 262.73978,555.24555 261.10328,555.2088 260.23177,554.76797 C 257.52522,553.39892 257.80643,549.61581 259.25685,547.45622 C 262.68719,542.34864 270.11883,543.15885 274.4095,546.58245 C 283.00136,553.43805 281.25868,566.48036 274.55417,573.95195 C 262.55895,587.31957 241.4763,584.11795 229.56517,572.47334 C 209.91946,553.26721 215.23179,521.24065 233.83284,503.42055" />
    <path
       inkscape:transform-center-x="9.6666678"
       inkscape:transform-center-y="13.999996"
       id="path5267"
       style="fill:#000000;fill-rule:evenodd;stroke:#000000;stroke-width:1px;stroke-linecap:butt;stroke-linejoin:miter;stroke-opacity:1;filter:url(#filter5733)"
       d="M 262.66666,553.36218 C 262.66431,553.35812 262.67421,553.35584 262.67885,553.35514 C 262.77101,553.34127 262.78694,553.50382 262.77929,553.55727 C 262.71033,554.03902 262.01886,554.05388 261.67904,553.93238 C 260.2083,553.40652 260.27421,551.37396 260.86454,550.24083 C 262.65788,546.79856 267.48489,547.14196 270.28714,548.96249 C 277.15803,553.42628 276.16803,563.35463 271.78986,569.16403 C 262.50206,581.48801 244.10097,579.25313 233.39179,570.26404 C 212.93027,553.08901 217.29404,521.56894 233.83284,503.42055 M 262.66666,553.36218 C 262.65016,553.33361 262.74315,553.31481 262.74925,553.3145 C 263.09914,553.29629 263.13144,553.83969 263.06989,554.0606 C 262.73978,555.24555 261.10328,555.2088 260.23177,554.76797 C 257.52522,553.39892 257.80643,549.61581 259.25685,547.45622 C 262.68719,542.34864 270.11883,543.15885 274.4095,546.58245 C 283.00136,553.43805 281.25868,566.48036 274.55417,573.95195 C 262.55895,587.31957 241.4763,584.11795 229.56517,572.47334 C 209.91946,553.26721 215.23179,521.24065 233.83284,503.42055"
       transform="matrix(0,-1,1,0,-290.02979,815.39761)" />
    <path
       transform="matrix(-1,0,0,-1,525.36782,1105.4274)"
       d="M 262.66666,553.36218 C 262.66431,553.35812 262.67421,553.35584 262.67885,553.35514 C 262.77101,553.34127 262.78694,553.50382 262.77929,553.55727 C 262.71033,554.03902 262.01886,554.05388 261.67904,553.93238 C 260.2083,553.40652 260.27421,551.37396 260.86454,550.24083 C 262.65788,546.79856 267.48489,547.14196 270.28714,548.96249 C 277.15803,553.42628 276.16803,563.35463 271.78986,569.16403 C 262.50206,581.48801 244.10097,579.25313 233.39179,570.26404 C 212.93027,553.08901 217.29404,521.56894 233.83284,503.42055 M 262.66666,553.36218 C 262.65016,553.33361 262.74315,553.31481 262.74925,553.3145 C 263.09914,553.29629 263.13144,553.83969 263.06989,554.0606 C 262.73978,555.24555 261.10328,555.2088 260.23177,554.76797 C 257.52522,553.39892 257.80643,549.61581 259.25685,547.45622 C 262.68719,542.34864 270.11883,543.15885 274.4095,546.58245 C 283.00136,553.43805 281.25868,566.48036 274.55417,573.95195 C 262.55895,587.31957 241.4763,584.11795 229.56517,572.47334 C 209.91946,553.26721 215.23179,521.24065 233.83284,503.42055"
       style="fill:#000000;fill-rule:evenodd;stroke:#000000;stroke-width:1px;stroke-linecap:butt;stroke-linejoin:miter;stroke-opacity:1;filter:url(#filter5737)"
       id="path5269"
       inkscape:transform-center-y="9.6666638"
       inkscape:transform-center-x="-13.999995" />
    <path
       inkscape:transform-center-x="-9.6666628"
       inkscape:transform-center-y="-13.999999"
       id="path5271"
       style="fill:#000000;fill-rule:evenodd;stroke:#000000;stroke-width:1px;stroke-linecap:butt;stroke-linejoin:miter;stroke-opacity:1;filter:url(#filter5741)"
       d="M 262.66666,553.36218 C 262.66431,553.35812 262.67421,553.35584 262.67885,553.35514 C 262.77101,553.34127 262.78694,553.50382 262.77929,553.55727 C 262.71033,554.03902 262.01886,554.05388 261.67904,553.93238 C 260.2083,553.40652 260.27421,551.37396 260.86454,550.24083 C 262.65788,546.79856 267.48489,547.14196 270.28714,548.96249 C 277.15803,553.42628 276.16803,563.35463 271.78986,569.16403 C 262.50206,581.48801 244.10097,579.25313 233.39179,570.26404 C 212.93027,553.08901 217.29404,521.56894 233.83284,503.42055 M 262.66666,553.36218 C 262.65016,553.33361 262.74315,553.31481 262.74925,553.3145 C 263.09914,553.29629 263.13144,553.83969 263.06989,554.0606 C 262.73978,555.24555 261.10328,555.2088 260.23177,554.76797 C 257.52522,553.39892 257.80643,549.61581 259.25685,547.45622 C 262.68719,542.34864 270.11883,543.15885 274.4095,546.58245 C 283.00136,553.43805 281.25868,566.48036 274.55417,573.95195 C 262.55895,587.31957 241.4763,584.11795 229.56517,572.47334 C 209.91946,553.26721 215.23179,521.24065 233.83284,503.42055"
       transform="matrix(0,1,-1,0,815.39761,290.02979)" />
    <path
       d="M 274.66667 553.02887 A 11.666667 11.666667 0 1 1  251.33333,553.02887 A 11.666667 11.666667 0 1 1  274.66667 553.02887 z"
       sodipodi:ry="11.666667"
       sodipodi:rx="11.666667"
       sodipodi:cy="553.02887"
       sodipodi:cx="263"
       id="path5355"
       style="opacity:1;fill:#241c1c;fill-opacity:1;stroke:#000000;stroke-width:0;stroke-linejoin:miter;stroke-miterlimit:4;stroke-dasharray:none;stroke-opacity:1;filter:url(#filter5537)"
       sodipodi:type="arc"
       transform="matrix(2.0285714,0,0,2.0285714,-270.51428,-568.82968)" />
    <path
       id="path2530"
       d="M 122.91433,383.691 L 127.36802,388.11505 L 133.43689,387.33689 M 135.47939,381.93697 L 136.52491,375.95564 L 142.19195,373.1866 L 146.95932,377.40129 M 135.47939,381.93697 L 134.37768,387.98634 L 140.45333,391.08749 L 145.62499,387.53034 M 135.47939,381.93697 L 137.4461,375.78767 L 139.31004,369.95969 L 133.4383,372.05388 M 139.31004,369.95969 L 144.96162,367.0927 M 139.31004,369.95969 L 144.62094,366.4053 L 149.82023,362.9256 M 149.82023,362.9256 L 155.98265,363.62033 L 159.84495,359.35727 M 149.82023,362.9256 L 155.79354,361.76729 L 162.16417,360.53193 L 163.0978,347.15905 M 162.16417,360.53193 L 166.25428,364.91459 L 170.66465,361.16588 L 169.87289,354.36194 M 135.47939,381.93697 L 135.29466,388.45796 L 135.13671,394.03361 L 139.09303,389.51994 L 145.51919,390.89512 L 147.35259,396.55687 M 135.13671,394.03361 L 131.50741,399.35433 L 132.92038,405.14689 L 138.77744,405.83867 M 135.13671,394.03361 L 141.69247,394.94971 L 147.48376,395.75899 L 143.34406,390.8401 L 145.36496,384.83406 L 151.38749,381.91301 M 147.48376,395.75899 L 150.93396,401.00009 L 157.05236,399.52097 L 159.65532,393.045 M 147.48376,395.75899 L 148.22921,389.47003 L 148.97043,383.21674 L 142.64788,385.12646 L 138.00762,380.38295 L 137.0908,374.03697 M 148.97043,383.21674 L 154.21927,379.57283 L 154.59661,372.87347 L 151.75669,367.45495 M 135.47939,381.93697 L 141.85788,383.92618 L 147.81834,385.78502 L 147.63104,379.33121 L 152.83827,375.63562 L 158.15847,378.76147 M 147.81834,385.78502 L 143.94619,391.03967 L 146.90814,396.82846 L 153.42317,397.53931 M 147.81834,385.78502 L 151.46118,390.58063 L 155.19873,395.50094 L 158.62107,390.43134 L 164.60916,391.68359 L 165.03673,398.15694 M 155.19873,395.50094 L 150.1124,398.96226 L 150.56706,404.83743 L 156.56678,407.5663 M 155.19873,395.50094 L 159.71945,391.70753 L 164.50813,387.68928 L 163.89646,381.20417 L 169.73874,378.45282 L 173.86737,383.10395 M 164.50813,387.68928 L 166.98297,393.56381 L 173.42495,393.47583 L 178.2642,389.08284 M 164.50813,387.68928 L 168.3753,392.77276 L 172.30172,397.9341 L 175.54463,391.91596 L 181.75307,389.80129 L 185.93681,394.59641 M 172.30172,397.9341 L 169.64425,403.36459 L 171.76596,408.77923 L 177.98551,408.42628 M 172.30172,397.9341 L 170.20589,403.98941 L 168.17508,409.85683 L 174.77726,409.61588 L 175.72681,416.20093 L 169.84209,418.46941 M 168.17508,409.85683 L 161.62438,410.35892 L 161.36081,417.13848 L 166.27351,420.20042 M 155.19873,395.50094 L 151.43304,399.55368 L 146.66038,404.69017 L 151.45717,408.73425 L 148.84933,414.38635 L 143.65274,417.40974 M 146.66038,404.69017 L 141.17902,402.33899 L 136.05199,405.60278 L 138.02427,411.45591 M 146.66038,404.69017 L 146.99268,411.40731 L 147.30429,417.70593 L 151.23694,412.46753 L 157.60374,413.67717 L 160.14003,419.76753 M 147.30429,417.70593 L 142.26482,421.53216 L 144.37758,427.2164 L 150.9891,426.15421 M 147.30429,417.70593 L 152.36405,420.62128 L 158.29368,424.03783 L 159.40436,417.91745 L 165.58893,414.95225 L 171.66819,416.75817 M 158.29368,424.03783 L 157.71796,430.49192 L 162.39446,434.90186 L 168.40082,432.31791 M 155.19873,395.50094 L 157.12505,389.63194 L 159.25066,383.15573 L 154.19033,386.75693 L 148.36832,386.15439 L 147.14562,380.30271 M 159.25066,383.15573 L 165.51543,381.99974 L 166.20443,375.42131 L 161.97466,371.53401 M 159.25066,383.15573 L 162.32222,377.70398 L 165.39916,372.24267 L 159.35474,370.35463 L 158.02458,363.99931 L 161.92584,359.17911 M 165.39916,372.24267 L 172.23929,372.69024 L 176.71144,368.04799 L 174.88852,362.39673 M 165.39916,372.24267 L 159.00412,372.18117 L 152.32866,372.11697 L 156.45752,377.16219 L 155.0049,383.73541 L 149.68072,387.66937 M 152.32866,372.11697 L 151.37957,365.7255 L 145.43948,363.15257 L 139.87841,365.17392 M 152.32866,372.11697 L 150.13552,366.28129 L 141.92346,363.097 M 162.14322,360.19575 L 168.10758,361.27354 L 171.45342,356.26058 M 165.39916,372.24267 L 171.54844,374.49668 L 177.6033,376.71607 L 178.18561,370.64531 L 183.81827,367.99153 L 190.01825,369.80528 M 177.6033,376.71607 L 181.00092,381.94123 L 186.69616,379.09174 L 189.14174,373.79635 M 177.6033,376.71607 L 182.96423,372.98068 L 188.2829,369.27472 L 182.46786,365.81758 L 179.98648,360.00358 L 183.69132,354.87294 M 188.2829,369.27472 L 193.40565,373.65805 L 199.18486,371.25635 L 199.60817,364.4369 M 188.2829,369.27472 L 188.13544,362.88488 L 187.98919,356.54718 L 182.08355,359.30429 L 176.5089,356.26926 L 178.12636,349.70534 M 187.98919,356.54718 L 193.88604,354.35506 L 193.53753,348.07079 M 165.39916,372.24267 L 170.90872,373.45697 L 176.38059,374.66297 L 172.53749,368.95871 L 174.64878,363.34798 L 180.51441,361.29135 M 176.38059,374.66297 L 177.58725,380.77287 L 182.85048,384.307 L 187.61512,379.94081 M 176.38059,374.66297 L 183.06042,375.20978 L 189.56242,375.74204 L 184.73434,370.87377 L 185.88523,364.49343 L 191.50417,361.52305 M 189.56242,375.74204 L 192.53458,381.14249 L 198.44299,380.00606 L 201.81292,374.68524 M 189.56242,375.74204 L 184.58253,371.60419 L 179.72822,367.57069 L 181.50132,373.99979 L 175.8396,377.66353 L 170.04803,376.21248 M 179.72822,367.57069 L 179.84958,361.14469 L 175.34498,356.40123 L 169.04496,357.18828 M 179.72822,367.57069 L 180.8838,361.7552 L 182.02784,355.99771 L 176.0566,357.14609 L 171.29383,352.47781 L 172.64019,346.42387 M 182.02784,355.99771 L 186.49721,351.79085 L 185.76563,345.39515 L 179.07324,344.52622 M 182.02784,355.99771 L 187.91771,353.69977 L 193.23985,351.62332 M 193.23985,351.62332 L 197.0143,356.6883 L 202.83893,355.90355 L 205.97337,350.53874 M 189.56242,375.74204 L 194.70346,379.22208 L 199.53534,382.49285 L 198.27374,376.4389 L 202.74677,372.03145 L 208.98706,374.54144 M 199.53534,382.49285 L 197.25432,388.46211 L 200.43981,393.95815 L 207.14485,392.65418 M 199.53534,382.49285 L 205.31253,380.19938 L 211.8722,377.59528 L 207.85304,372.26585 L 211.28352,367.01138 L 217.49172,367.44288 M 211.8722,377.59528 L 216.74675,382.13706 L 221.96337,379.10633 L 223.23588,372.86816 M 211.8722,377.59528 L 214.30312,371.16809 L 211.11185,368.01274 L 206.00542,364.73958 L 207.07431,358.75198 M 189.56242,375.74204 L 194.38665,379.27415 L 199.55328,383.05695 L 198.90981,376.63187 L 202.88434,372.17801 L 208.85087,369.99114 M 199.55328,383.05695 L 200.18352,389.52735 L 206.27076,390.7887 L 212.31411,387.9011 M 199.55328,383.05695 L 205.26214,385.65993 L 211.15149,388.34521 L 211.43828,382.33341 L 216.89522,378.6673 L 223.23953,379.78341 M 211.15149,388.34521 L 210.04841,394.56238 L 215.14141,398.4135 L 221.13518,396.32887 M 211.15149,388.34521 L 212.58874,382.09981 L 214.03752,375.80432 L 208.23186,376.35264 L 204.55679,371.44412 L 207.56038,365.47078 M 214.03752,375.80432 L 220.7539,374.77806 L 223.97283,368.99927 M 214.03752,375.80432 L 219.06933,371.83314 L 224.15031,367.82317 M 211.15149,388.34521 L 209.18792,394.55205 L 207.31623,400.46841 L 213.45277,398.56078 L 218.42716,402.32375 L 219.28636,409.29232 M 207.31623,400.46841 L 201.11037,400.75934 L 197.90812,406.4248 L 200.89287,412.09206 M 207.31623,400.46841 L 212.84438,403.09247 L 218.50509,405.77944 L 218.69307,399.43249 L 222.93963,394.79327 L 229.28042,396.44182 M 218.50509,405.77944 L 218.28906,411.96786 L 223.70932,414.4331 M 218.50509,405.77944 L 225.01044,406.24531 L 227.98272,401.62064 L 230.69499,396.04153 L 236.98037,397.43964 M 155.19873,395.50094 L 152.3894,400.66319 L 149.29057,406.35742 L 156.02427,405.52463 L 161.78204,408.4201 L 160.87439,414.6263 M 149.29057,406.35742 L 143.29469,404.62731 L 139.44763,409.41738 L 138.54146,415.6079 M 149.29057,406.35742 L 147.5444,412.1443 L 145.72923,418.15985 L 151.37235,414.33447 L 156.5309,416.52672 L 155.79021,422.54499 M 145.72923,418.15985 L 139.83412,421.27347 L 140.07813,427.6791 L 145.88564,429.07121 M 145.72923,418.15985 L 150.97522,414.20074 L 156.72719,409.85978 L 151.48597,406.04602 L 154.0256,400.31965 L 159.74445,401.85192 M 156.72719,409.85978 L 161.39742,414.70986 L 167.13169,412.52621 L 168.53428,406.34383 M 156.72719,409.85978 L 163.21532,411.10945 L 168.92669,412.20951 L 166.63362,406.28051 L 171.3059,402.50299 L 176.39083,406.92447 M 168.92669,412.20951 L 172.90722,418.04344 L 179.46576,418.38314 L 183.41507,414.02134 M 168.92669,412.20951 L 172.47692,417.23309 L 175.74842,421.86227 L 181.39702,417.91213 L 186.60521,421.5788 L 188.08011,427.94143 M 175.74842,421.86227 L 172.75242,427.48708 L 175.3583,433.25541 L 180.35063,436.03795 M 145.72923,418.15985 L 139.87716,420.39786 L 134.03733,422.63119 L 137.27212,428.07 M 145.72923,418.15985 L 150.74991,422.76188 L 155.79092,427.38256 L 158.42518,420.83154 L 164.79901,419.30579 L 168.79402,424.21349 M 155.79092,427.38256 L 156.22095,433.36353 L 161.71295,437.27427 L 167.95523,434.85615 M 155.79092,427.38256 L 161.30136,430.92561 L 166.67239,434.37904 L 166.72577,427.88716 L 172.33306,424.54131 L 177.12959,428.22154 M 166.67239,434.37904 L 166.32016,440.47417 L 170.94186,443.94758 L 176.56189,443.04335 M 166.67239,434.37904 L 162.68415,429.17455 L 159.15766,424.57263 L 158.76459,431.37871 L 152.6037,432.06602 L 149.7565,426.40663 M 159.15766,424.57263 L 158.75343,418.57391 L 153.44157,416.81594 L 148.37436,419.87248 M 159.15766,424.57263 L 160.09149,418.85697 L 161.01835,413.18399 L 154.59601,412.12329 L 153.56074,405.62877 L 156.87549,400.52207 M 161.01835,413.18399 L 167.57798,412.47224 L 168.71341,406.01749 L 163.30971,402.71802 M 161.01835,413.18399 L 167.15542,411.51478 L 173.33482,409.83405 L 168.45911,405.80009 L 170.26966,399.62223 L 176.49428,400.3309 M 173.33482,409.83405 L 179.00524,412.24447 L 184.3704,408.7295 L 184.96396,401.74179 M 166.67239,434.37904 L 168.77402,440.61627 L 170.68504,446.28778 L 175.19713,442.24252 L 180.80093,443.43658 M 170.68504,446.28778 L 181.6226,446.86238 M 189.73526,436.53693 L 195.30816,433.46917 M 166.67239,434.37904 L 172.2824,432.16728 L 178.2765,429.80409 L 172.8699,427.1432 L 174.11177,421.10536 L 180.30288,418.57483 M 178.2765,429.80409 L 183.17685,433.52526 L 189.68124,433.07985 L 191.29306,427.00865 M 178.2765,429.80409 L 183.26419,425.87083 L 188.42216,421.80325 L 182.12001,419.45582 L 179.96578,413.32139 L 183.15861,408.08952 M 188.42216,421.80325 L 195.20948,421.92154 L 197.42023,416.04598 L 193.03796,411.56379 M 188.42216,421.80325 L 182.74567,422.10265 L 176.41448,422.43657 L 180.87838,427.45138 L 180.32213,433.49594 L 175.63189,437.61554 M 176.41448,422.43657 L 169.7324,421.66392 L 165.35672,425.80112 L 169.44441,430.38928 M 176.41448,422.43657 L 170.28629,422.38703 L 164.26982,422.33837 L 166.06228,428.36501 L 162.99138,434.02624 L 156.80142,435.62822 M 164.26982,422.33837 L 161.17258,416.79958 L 154.79304,417.74422 L 154.83288,424.68922 M 164.26982,422.33837 L 161.26906,416.68857 L 158.42547,411.33473 L 156.80909,417.61994 L 150.65931,417.62954 L 149.07326,411.65591 M 158.42547,411.33473 L 162.64475,406.98697 L 160.84085,401.2767 L 154.50162,401.35541 M 188.42216,421.80325 L 194.24042,419.45027 L 200.13619,417.06594 L 196.55009,411.62288 L 198.53971,405.26779 L 204.64814,402.91161 M 200.13619,417.06594 L 203.58569,422.43425 L 209.31087,424.77056 L 214.1199,420.44184 M 200.13619,417.06594 L 203.79925,412.01198 L 207.41266,407.0265 L 201.16754,405.35848 L 198.58656,399.17 L 200.98621,394.22374 M 207.41266,407.0265 L 214.29263,406.7825 L 218.10162,401.7639 L 217.07083,395.85271 M 207.41266,407.0265 L 206.49637,400.2169 L 205.58847,393.46961 L 201.36208,398.01196 L 195.18713,398.35243 L 192.39759,393.26313 M 205.58847,393.46961 L 206.87471,386.94781 L 201.42389,383.54447 L 195.07231,385.3593"
       style="fill:none;fill-opacity:1;stroke:#ffec00;stroke-width:1;stroke-linecap:butt;stroke-linejoin:miter;stroke-miterlimit:4;stroke-dasharray:none;stroke-opacity:1;filter:url(#filter3343)"
       sodipodi:nodetypes="ccccccccccccccccccccccccccccccccccccccccccccccccccccccccccccccccccccccccccccccccccccccccccccccccccccccccccccccccccccccccccccccccccccccccccccccccccccccccccccccccccccccccccccccccccccccccccccccccccccccccccccccccccccccccccccccccccccccccccccccccccccccccccccccccccccccccccccccccccccccccccccccccccccccccccccccccccccccccccccccccccccccccccccccccccccccccccccccccccccccccccccccccccccccccccccccccccccccccccccccccccccccccccccccccccccccccccccccccccccccccccccccccccccccccccccccccccccccccccccccccccccccccccccccccccccccccccccccccccccccccccccccc"
       transform="matrix(1.0387086,0,0,1.0387086,-6.9655133,-15.31678)" />
    <path
       transform="matrix(-0.131952,-0.7009681,0.7009681,-0.131952,-73.526572,574.35311)"
       sodipodi:nodetypes="ccccccccccccccccccccccccccccccccccccccccccccccccccccccccccccccccccccccccccccccccccccccccccccccccccccccccccccccccccccccccccccccccccccccccccccccccccccccccccccccccccccccccccccccccccccccccccccccccccccccccccccccccccccccccccccccccccccccccccccccccccccccccccccccccccccccccccccccccccccccccccccccccccccccccccccccccccccccccccccccccccccccccccccccccccccccccccccccccccccccccccccccccccccccccccccccccccccccccccccccccccccccccccccccccccccccccccccccccccccccccccccccccccccccccccccccccccccccccccccccccccccccccccccccccccccccccccccccccccccccccccccccc"
       style="fill:none;fill-opacity:1;stroke:#ffaa00;stroke-width:1;stroke-linecap:butt;stroke-linejoin:miter;stroke-miterlimit:4;stroke-dasharray:none;stroke-opacity:1;filter:url(#filter3343)"
       d="M 122.91433,383.691 L 127.36802,388.11505 L 133.43689,387.33689 M 135.47939,381.93697 L 136.52491,375.95564 L 142.19195,373.1866 L 146.95932,377.40129 M 135.47939,381.93697 L 134.37768,387.98634 L 140.45333,391.08749 L 145.62499,387.53034 M 135.47939,381.93697 L 137.4461,375.78767 L 139.31004,369.95969 L 133.4383,372.05388 M 139.31004,369.95969 L 144.96162,367.0927 M 139.31004,369.95969 L 144.62094,366.4053 L 149.82023,362.9256 M 149.82023,362.9256 L 155.98265,363.62033 L 159.84495,359.35727 M 149.82023,362.9256 L 155.79354,361.76729 L 162.16417,360.53193 L 163.0978,347.15905 M 162.16417,360.53193 L 166.25428,364.91459 L 170.66465,361.16588 L 169.87289,354.36194 M 135.47939,381.93697 L 135.29466,388.45796 L 135.13671,394.03361 L 139.09303,389.51994 L 145.51919,390.89512 L 147.35259,396.55687 M 135.13671,394.03361 L 131.50741,399.35433 L 132.92038,405.14689 L 138.77744,405.83867 M 135.13671,394.03361 L 141.69247,394.94971 L 147.48376,395.75899 L 143.34406,390.8401 L 145.36496,384.83406 L 151.38749,381.91301 M 147.48376,395.75899 L 150.93396,401.00009 L 157.05236,399.52097 L 159.65532,393.045 M 147.48376,395.75899 L 148.22921,389.47003 L 148.97043,383.21674 L 142.64788,385.12646 L 138.00762,380.38295 L 137.0908,374.03697 M 148.97043,383.21674 L 154.21927,379.57283 L 154.59661,372.87347 L 151.75669,367.45495 M 135.47939,381.93697 L 141.85788,383.92618 L 147.81834,385.78502 L 147.63104,379.33121 L 152.83827,375.63562 L 158.15847,378.76147 M 147.81834,385.78502 L 143.94619,391.03967 L 146.90814,396.82846 L 153.42317,397.53931 M 147.81834,385.78502 L 151.46118,390.58063 L 155.19873,395.50094 L 158.62107,390.43134 L 164.60916,391.68359 L 165.03673,398.15694 M 155.19873,395.50094 L 150.1124,398.96226 L 150.56706,404.83743 L 156.56678,407.5663 M 155.19873,395.50094 L 159.71945,391.70753 L 164.50813,387.68928 L 163.89646,381.20417 L 169.73874,378.45282 L 173.86737,383.10395 M 164.50813,387.68928 L 166.98297,393.56381 L 173.42495,393.47583 L 178.2642,389.08284 M 164.50813,387.68928 L 168.3753,392.77276 L 172.30172,397.9341 L 175.54463,391.91596 L 181.75307,389.80129 L 185.93681,394.59641 M 172.30172,397.9341 L 169.64425,403.36459 L 171.76596,408.77923 L 177.98551,408.42628 M 172.30172,397.9341 L 170.20589,403.98941 L 168.17508,409.85683 L 174.77726,409.61588 L 175.72681,416.20093 L 169.84209,418.46941 M 168.17508,409.85683 L 161.62438,410.35892 L 161.36081,417.13848 L 166.27351,420.20042 M 155.19873,395.50094 L 151.43304,399.55368 L 146.66038,404.69017 L 151.45717,408.73425 L 148.84933,414.38635 L 143.65274,417.40974 M 146.66038,404.69017 L 141.17902,402.33899 L 136.05199,405.60278 L 138.02427,411.45591 M 146.66038,404.69017 L 146.99268,411.40731 L 147.30429,417.70593 L 151.23694,412.46753 L 157.60374,413.67717 L 160.14003,419.76753 M 147.30429,417.70593 L 142.26482,421.53216 L 144.37758,427.2164 L 150.9891,426.15421 M 147.30429,417.70593 L 152.36405,420.62128 L 158.29368,424.03783 L 159.40436,417.91745 L 165.58893,414.95225 L 171.66819,416.75817 M 158.29368,424.03783 L 157.71796,430.49192 L 162.39446,434.90186 L 168.40082,432.31791 M 155.19873,395.50094 L 157.12505,389.63194 L 159.25066,383.15573 L 154.19033,386.75693 L 148.36832,386.15439 L 147.14562,380.30271 M 159.25066,383.15573 L 165.51543,381.99974 L 166.20443,375.42131 L 161.97466,371.53401 M 159.25066,383.15573 L 162.32222,377.70398 L 165.39916,372.24267 L 159.35474,370.35463 L 158.02458,363.99931 L 161.92584,359.17911 M 165.39916,372.24267 L 172.23929,372.69024 L 176.71144,368.04799 L 174.88852,362.39673 M 165.39916,372.24267 L 159.00412,372.18117 L 152.32866,372.11697 L 156.45752,377.16219 L 155.0049,383.73541 L 149.68072,387.66937 M 152.32866,372.11697 L 151.37957,365.7255 L 145.43948,363.15257 L 139.87841,365.17392 M 152.32866,372.11697 L 150.13552,366.28129 L 141.92346,363.097 M 162.14322,360.19575 L 168.10758,361.27354 L 171.45342,356.26058 M 165.39916,372.24267 L 171.54844,374.49668 L 177.6033,376.71607 L 178.18561,370.64531 L 183.81827,367.99153 L 190.01825,369.80528 M 177.6033,376.71607 L 181.00092,381.94123 L 186.69616,379.09174 L 189.14174,373.79635 M 177.6033,376.71607 L 182.96423,372.98068 L 188.2829,369.27472 L 182.46786,365.81758 L 179.98648,360.00358 L 183.69132,354.87294 M 188.2829,369.27472 L 193.40565,373.65805 L 199.18486,371.25635 L 199.60817,364.4369 M 188.2829,369.27472 L 188.13544,362.88488 L 187.98919,356.54718 L 182.08355,359.30429 L 176.5089,356.26926 L 178.12636,349.70534 M 187.98919,356.54718 L 193.88604,354.35506 L 193.53753,348.07079 M 165.39916,372.24267 L 170.90872,373.45697 L 176.38059,374.66297 L 172.53749,368.95871 L 174.64878,363.34798 L 180.51441,361.29135 M 176.38059,374.66297 L 177.58725,380.77287 L 182.85048,384.307 L 187.61512,379.94081 M 176.38059,374.66297 L 183.06042,375.20978 L 189.56242,375.74204 L 184.73434,370.87377 L 185.88523,364.49343 L 191.50417,361.52305 M 189.56242,375.74204 L 192.53458,381.14249 L 198.44299,380.00606 L 201.81292,374.68524 M 189.56242,375.74204 L 184.58253,371.60419 L 179.72822,367.57069 L 181.50132,373.99979 L 175.8396,377.66353 L 170.04803,376.21248 M 179.72822,367.57069 L 179.84958,361.14469 L 175.34498,356.40123 L 169.04496,357.18828 M 179.72822,367.57069 L 180.8838,361.7552 L 182.02784,355.99771 L 176.0566,357.14609 L 171.29383,352.47781 L 172.64019,346.42387 M 182.02784,355.99771 L 186.49721,351.79085 L 185.76563,345.39515 L 179.07324,344.52622 M 182.02784,355.99771 L 187.91771,353.69977 L 193.23985,351.62332 M 193.23985,351.62332 L 197.0143,356.6883 L 202.83893,355.90355 L 205.97337,350.53874 M 189.56242,375.74204 L 194.70346,379.22208 L 199.53534,382.49285 L 198.27374,376.4389 L 202.74677,372.03145 L 208.98706,374.54144 M 199.53534,382.49285 L 197.25432,388.46211 L 200.43981,393.95815 L 207.14485,392.65418 M 199.53534,382.49285 L 205.31253,380.19938 L 211.8722,377.59528 L 207.85304,372.26585 L 211.28352,367.01138 L 217.49172,367.44288 M 211.8722,377.59528 L 216.74675,382.13706 L 221.96337,379.10633 L 223.23588,372.86816 M 211.8722,377.59528 L 214.30312,371.16809 L 211.11185,368.01274 L 206.00542,364.73958 L 207.07431,358.75198 M 189.56242,375.74204 L 194.38665,379.27415 L 199.55328,383.05695 L 198.90981,376.63187 L 202.88434,372.17801 L 208.85087,369.99114 M 199.55328,383.05695 L 200.18352,389.52735 L 206.27076,390.7887 L 212.31411,387.9011 M 199.55328,383.05695 L 205.26214,385.65993 L 211.15149,388.34521 L 211.43828,382.33341 L 216.89522,378.6673 L 223.23953,379.78341 M 211.15149,388.34521 L 210.04841,394.56238 L 215.14141,398.4135 L 221.13518,396.32887 M 211.15149,388.34521 L 212.58874,382.09981 L 214.03752,375.80432 L 208.23186,376.35264 L 204.55679,371.44412 L 207.56038,365.47078 M 214.03752,375.80432 L 220.7539,374.77806 L 223.97283,368.99927 M 214.03752,375.80432 L 219.06933,371.83314 L 224.15031,367.82317 M 211.15149,388.34521 L 209.18792,394.55205 L 207.31623,400.46841 L 213.45277,398.56078 L 218.42716,402.32375 L 219.28636,409.29232 M 207.31623,400.46841 L 201.11037,400.75934 L 197.90812,406.4248 L 200.89287,412.09206 M 207.31623,400.46841 L 212.84438,403.09247 L 218.50509,405.77944 L 218.69307,399.43249 L 222.93963,394.79327 L 229.28042,396.44182 M 218.50509,405.77944 L 218.28906,411.96786 L 223.70932,414.4331 M 218.50509,405.77944 L 225.01044,406.24531 L 227.98272,401.62064 L 230.69499,396.04153 L 236.98037,397.43964 M 155.19873,395.50094 L 152.3894,400.66319 L 149.29057,406.35742 L 156.02427,405.52463 L 161.78204,408.4201 L 160.87439,414.6263 M 149.29057,406.35742 L 143.29469,404.62731 L 139.44763,409.41738 L 138.54146,415.6079 M 149.29057,406.35742 L 147.5444,412.1443 L 145.72923,418.15985 L 151.37235,414.33447 L 156.5309,416.52672 L 155.79021,422.54499 M 145.72923,418.15985 L 139.83412,421.27347 L 140.07813,427.6791 L 145.88564,429.07121 M 145.72923,418.15985 L 150.97522,414.20074 L 156.72719,409.85978 L 151.48597,406.04602 L 154.0256,400.31965 L 159.74445,401.85192 M 156.72719,409.85978 L 161.39742,414.70986 L 167.13169,412.52621 L 168.53428,406.34383 M 156.72719,409.85978 L 163.21532,411.10945 L 168.92669,412.20951 L 166.63362,406.28051 L 171.3059,402.50299 L 176.39083,406.92447 M 168.92669,412.20951 L 172.90722,418.04344 L 179.46576,418.38314 L 183.41507,414.02134 M 168.92669,412.20951 L 172.47692,417.23309 L 175.74842,421.86227 L 181.39702,417.91213 L 186.60521,421.5788 L 188.08011,427.94143 M 175.74842,421.86227 L 172.75242,427.48708 L 175.3583,433.25541 L 180.35063,436.03795 M 145.72923,418.15985 L 139.87716,420.39786 L 134.03733,422.63119 L 137.27212,428.07 M 145.72923,418.15985 L 150.74991,422.76188 L 155.79092,427.38256 L 158.42518,420.83154 L 164.79901,419.30579 L 168.79402,424.21349 M 155.79092,427.38256 L 156.22095,433.36353 L 161.71295,437.27427 L 167.95523,434.85615 M 155.79092,427.38256 L 161.30136,430.92561 L 166.67239,434.37904 L 166.72577,427.88716 L 172.33306,424.54131 L 177.12959,428.22154 M 166.67239,434.37904 L 166.32016,440.47417 L 170.94186,443.94758 L 176.56189,443.04335 M 166.67239,434.37904 L 162.68415,429.17455 L 159.15766,424.57263 L 158.76459,431.37871 L 152.6037,432.06602 L 149.7565,426.40663 M 159.15766,424.57263 L 158.75343,418.57391 L 153.44157,416.81594 L 148.37436,419.87248 M 159.15766,424.57263 L 160.09149,418.85697 L 161.01835,413.18399 L 154.59601,412.12329 L 153.56074,405.62877 L 156.87549,400.52207 M 161.01835,413.18399 L 167.57798,412.47224 L 168.71341,406.01749 L 163.30971,402.71802 M 161.01835,413.18399 L 167.15542,411.51478 L 173.33482,409.83405 L 168.45911,405.80009 L 170.26966,399.62223 L 176.49428,400.3309 M 173.33482,409.83405 L 179.00524,412.24447 L 184.3704,408.7295 L 184.96396,401.74179 M 166.67239,434.37904 L 168.77402,440.61627 L 170.68504,446.28778 L 175.19713,442.24252 L 180.80093,443.43658 M 170.68504,446.28778 L 181.6226,446.86238 M 189.73526,436.53693 L 195.30816,433.46917 M 166.67239,434.37904 L 172.2824,432.16728 L 178.2765,429.80409 L 172.8699,427.1432 L 174.11177,421.10536 L 180.30288,418.57483 M 178.2765,429.80409 L 183.17685,433.52526 L 189.68124,433.07985 L 191.29306,427.00865 M 178.2765,429.80409 L 183.26419,425.87083 L 188.42216,421.80325 L 182.12001,419.45582 L 179.96578,413.32139 L 183.15861,408.08952 M 188.42216,421.80325 L 195.20948,421.92154 L 197.42023,416.04598 L 193.03796,411.56379 M 188.42216,421.80325 L 182.74567,422.10265 L 176.41448,422.43657 L 180.87838,427.45138 L 180.32213,433.49594 L 175.63189,437.61554 M 176.41448,422.43657 L 169.7324,421.66392 L 165.35672,425.80112 L 169.44441,430.38928 M 176.41448,422.43657 L 170.28629,422.38703 L 164.26982,422.33837 L 166.06228,428.36501 L 162.99138,434.02624 L 156.80142,435.62822 M 164.26982,422.33837 L 161.17258,416.79958 L 154.79304,417.74422 L 154.83288,424.68922 M 164.26982,422.33837 L 161.26906,416.68857 L 158.42547,411.33473 L 156.80909,417.61994 L 150.65931,417.62954 L 149.07326,411.65591 M 158.42547,411.33473 L 162.64475,406.98697 L 160.84085,401.2767 L 154.50162,401.35541 M 188.42216,421.80325 L 194.24042,419.45027 L 200.13619,417.06594 L 196.55009,411.62288 L 198.53971,405.26779 L 204.64814,402.91161 M 200.13619,417.06594 L 203.58569,422.43425 L 209.31087,424.77056 L 214.1199,420.44184 M 200.13619,417.06594 L 203.79925,412.01198 L 207.41266,407.0265 L 201.16754,405.35848 L 198.58656,399.17 L 200.98621,394.22374 M 207.41266,407.0265 L 214.29263,406.7825 L 218.10162,401.7639 L 217.07083,395.85271 M 207.41266,407.0265 L 206.49637,400.2169 L 205.58847,393.46961 L 201.36208,398.01196 L 195.18713,398.35243 L 192.39759,393.26313 M 205.58847,393.46961 L 206.87471,386.94781 L 201.42389,383.54447 L 195.07231,385.3593"
       id="path3347" />
  </g>
</svg>
